<?xml version="1.0" encoding="UTF-8"?>
<svg width="210mm" height="297mm" version="1.1" viewBox="0 0 210 297" xmlns="http://www.w3.org/2000/svg" xmlns:osb="http://www.openswatchbook.org/uri/2009/osb" xmlns:xlink="http://www.w3.org/1999/xlink"><g><path d="m53.209 139.49 13.563-25.806c-19.657 10.927-65.704-14.914-65.704-14.914s23.063 36.342 52.141 40.72z" fill="#ff2a7f" stroke="#000" stroke-width=".046435px"/><path transform="scale(.26458)" d="m267.29 439.24c-6.0995 12.618-12.258 24.691-18.465 36.307h37.67l-19.205-36.307zm-27.555 52.912c-45.435 81.055-93.249 137.56-140.15 183.34 80.186-27.067 189.38-64.188 218.74-139.77l-23.047-43.568h-55.545z" fill="#fff" stroke="#000" stroke-width=".1755px"/><text transform="scale(1.1131 .89842)" x="79.423058" y="156.03169" fill="#ffffff" font-family="Corbel" font-size="44.288px" font-weight="bold" stroke-width="5.0217" style="font-feature-settings:normal;font-variant-caps:normal;font-variant-ligatures:normal;font-variant-numeric:normal;line-height:1.25" xml:space="preserve"><tspan x="79.423058" y="156.03169" fill="#ffffff" font-family="Corbel" font-size="44.288px" font-weight="bold" stroke-width="5.0217" style="font-feature-settings:normal;font-variant-caps:normal;font-variant-ligatures:normal;font-variant-numeric:normal">VIAN</tspan></text><path d="m84.41 96.596c-2.9536 1.2234-5.1833 4.0131-6.7818 6.7818-1.6911 2.929 0.26418 8.0444-2.6261 9.8009-0.14596 0.0887-0.2972 0.17007-0.44748 0.25276l13.504 25.527c4.5494-12.474 7.551-31.198 22.627-31.357l30.641-0.26538c-9.0509-1.8732-23.394-2.2962-32.462-2.8113-7.5524-6.1315-14.565-11.703-24.455-7.9285z" fill="#ff2a7f" stroke="#000" stroke-width=".046435px"/></g></svg>
